<svg xmlns="http://www.w3.org/2000/svg" xml:space="preserve" viewBox="0 0 512 512"><path d="m128.35 241.27 18.82 18.82 112.92-112.92c5.27-5.24 11.92-7.76 18.82-7.79 6.9.03 13.55 2.55 18.82 7.79l-.01-.01L373 222.48c5.25 5.27 7.76 11.92 7.79 18.82-.03 6.9-2.55 13.55-7.79 18.82L260.08 373.03c-5.27 5.24-11.92 7.76-18.82 7.79-6.9-.03-13.55-2.55-18.82-7.79l.01.01-75.29-75.34c-5.24-5.27-7.76-11.92-7.79-18.82.03-6.9 2.55-13.55 7.79-18.82l-18.82-18.82-26.61-.01v.03a26.62 26.62 0 0 0 16.42 24.6c9.94 4.12 21.4 1.84 29.01-5.77zl26.61.01v-.03a26.62 26.62 0 0 0-16.42-24.6 26.63 26.63 0 0 0-29.01 5.77 79.74 79.74 0 0 0-23.38 56.45c-.03 20.34 7.84 40.93 23.38 56.45l75.29 75.34.01.01a79.74 79.74 0 0 0 56.45 23.38c20.34.03 40.93-7.84 56.45-23.38l112.92-112.92a79.74 79.74 0 0 0 23.38-56.45c.03-20.34-7.84-40.93-23.38-56.45l-75.29-75.32-.01-.01a79.74 79.74 0 0 0-56.45-23.38c-20.34-.03-40.93 7.84-56.45 23.38L109.53 222.45zl26.61.01z"/><path d="m379.46 210.64 82.13-20.55h-.01c30.23-7.61 50.43-34.62 50.42-64.52 0-5.35-.65-10.79-1.99-16.16a66.5 66.5 0 0 0-17.51-30.92l.01.01-58.98-59A66.47 66.47 0 0 0 386.47 0c-16.93-.03-34.11 6.54-47.03 19.47a66.3 66.3 0 0 0-14.13 20.88v-.01l-33.21 77.52c-5.79 13.51.47 29.16 13.98 34.94 13.51 5.79 29.16-.47 34.94-13.98l33.21-77.52v-.01l2.83-4.18c2.67-2.65 5.91-3.86 9.41-3.89 3.49.03 6.74 1.25 9.41 3.9l58.98 59 .01.01 3.5 6.18.41 3.26c-.01 5.88-4.04 11.42-10.09 12.88h-.01L366.55 159c-14.26 3.57-22.93 18.02-19.36 32.28 3.56 14.26 18.01 22.93 32.27 19.36M159 366.55l-20.55 82.13v.01c-1.46 6.05-7 10.08-12.88 10.09l-3.26-.41-6.18-3.5-.01-.01-59-58.98c-2.65-2.67-3.87-5.92-3.9-9.4.03-3.51 1.25-6.76 3.89-9.42l4.18-2.83h.01l77.52-33.21c13.51-5.79 19.77-21.43 13.98-34.94s-21.43-19.77-34.94-13.98l-77.52 33.21h.01a66.6 66.6 0 0 0-20.88 14.14C6.53 352.37-.03 369.56 0 386.48a66.45 66.45 0 0 0 19.5 47.05l59 58.98-.01-.01a66.6 66.6 0 0 0 30.92 17.51 66.8 66.8 0 0 0 16.16 1.99c29.9.01 56.91-20.19 64.52-50.42v.01l20.55-82.13c3.57-14.26-5.1-28.71-19.36-32.28-14.26-3.56-28.71 5.11-32.28 19.37"/></svg>